{
  "asset": { "version": "2.0", "generator": "sim-racing placeholder" },
  "scene": 0,
  "scenes": [{ "nodes": [0] }],
  "nodes": [{ "mesh": 0 }],
  "meshes": [
    {
      "name": "TrackSurface",
      "primitives": [
        {
          "attributes": { "POSITION": 1 },
          "indices": 0,
          "mode": 4
        }
      ]
    }
  ],
  "accessors": [
    {
      "bufferView": 0,
      "byteOffset": 0,
      "componentType": 5123,
      "count": 6,
      "type": "SCALAR",
      "max": [3],
      "min": [0]
    },
    {
      "bufferView": 1,
      "byteOffset": 0,
      "componentType": 5126,
      "count": 4,
      "type": "VEC3",
      "max": [10.0, 0.0, 10.0],
      "min": [-10.0, 0.0, -10.0]
    }
  ],
  "bufferViews": [
    {
      "buffer": 0,
      "byteOffset": 0,
      "byteLength": 12,
      "target": 34963
    },
    {
      "buffer": 0,
      "byteOffset": 12,
      "byteLength": 48,
      "target": 34962
    }
  ],
  "buffers": [
    {
      "byteLength": 60,
      "uri": "data:application/octet-stream;base64,"
    }
  ]
}
